<svg xmlns="http://www.w3.org/2000/svg" xmlns:xlink="http://www.w3.org/1999/xlink" width="500" zoomAndPan="magnify" viewBox="0 0 375 374.999991" height="500" preserveAspectRatio="xMidYMid meet" version="1.0"><defs><clipPath id="e63c412b10"><path d="M 5.382812 117.628906 L 369.882812 117.628906 L 369.882812 266 L 5.382812 266 Z M 5.382812 117.628906 " clip-rule="nonzero"/></clipPath></defs><g clip-path="url(#e63c412b10)"><path fill="#384252" d="M 199.980469 117.78125 L 196.179688 117.804688 C 183.988281 118.0625 174.414062 118.65625 167.464844 119.585938 C 171.183594 151.835938 172.613281 169.242188 171.746094 171.800781 C 171.648438 182.03125 167.570312 191.898438 159.507812 201.394531 C 158.839844 201.742188 158.222656 201.914062 157.664062 201.914062 C 156.109375 201.914062 154.6875 200.644531 154.289062 197.925781 C 151.230469 177.039062 147.15625 156.507812 140.222656 136.785156 C 138.160156 130.917969 136.050781 127.3125 134.84375 125.613281 L 130.171875 126.863281 C 117.824219 130.332031 105.835938 134.78125 94.214844 140.203125 C 95.632812 159.371094 95.398438 171.375 94.539062 176.425781 C 93.222656 184.148438 91.757812 190.460938 89.101562 195.210938 C 81.683594 191.335938 74.761719 177.730469 68.335938 154.386719 C 55.296875 162.792969 46.011719 169.667969 40.449219 174.976562 C 18.441406 195.96875 7.070312 219.132812 5.621094 244.457031 C 5.417969 248.03125 6.273438 252.515625 9.597656 257.5625 C 11.488281 260.433594 14.699219 262.234375 18.410156 263.859375 C 27.136719 267.675781 198.78125 264.355469 198.78125 264.355469 C 271.988281 261.53125 319.230469 259.371094 340.1875 255.78125 C 348.84375 254.296875 356.570312 249.957031 362.238281 243.355469 C 366.601562 238.273438 369.628906 231.554688 369.550781 224.265625 C 369.429688 212.199219 366.410156 205.367188 365.136719 202.851562 C 362.855469 198.359375 360.824219 193.542969 357.785156 188.964844 C 351.710938 179.804688 343.289062 170.855469 332.519531 162.113281 L 320.105469 153.214844 C 317.386719 177.628906 313.132812 189.839844 307.339844 189.839844 C 306.984375 189.839844 306.617188 189.808594 306.25 189.699219 C 304.726562 189.242188 303.0625 187.21875 302.742188 183.449219 C 300.945312 162.117188 300.144531 148.457031 298.832031 142.582031 C 277.710938 132.578125 258.078125 125.664062 239.933594 121.835938 L 238.460938 121.53125 L 238.457031 121.53125 C 240.972656 147.261719 241.152344 166.625 239.183594 179.652344 C 238.441406 184.582031 237.550781 188.214844 236.234375 190.460938 C 234.441406 193.519531 232.75 195.019531 231.261719 195.019531 C 230.933594 195.019531 230.613281 194.9375 230.296875 194.792969 C 228.3125 193.90625 225.546875 189.464844 224.328125 181 C 220.304688 153.070312 218.3125 136.242188 216.210938 130.75 C 214.960938 127.488281 212.945312 123.578125 209.949219 119.09375 L 210.523438 117.941406 Z M 199.980469 117.78125 " fill-opacity="1" fill-rule="nonzero"/></g></svg>