<svg xmlns="http://www.w3.org/2000/svg" xmlns:xlink="http://www.w3.org/1999/xlink" width="500" zoomAndPan="magnify" viewBox="0 0 375 374.999991" height="500" preserveAspectRatio="xMidYMid meet" version="1.0"><defs><clipPath id="e4f367026f"><path d="M 349 357 L 357 357 L 357 366 L 349 366 Z M 349 357 " clip-rule="nonzero"/></clipPath></defs><path fill="#384252" d="M 303.277344 209.746094 C 309.125 217.589844 310.960938 228.582031 308.441406 241.1875 C 306.707031 249.875 303 258.65625 297.730469 267.007812 C 295.398438 265.066406 291.945312 265.164062 289.757812 267.351562 C 287.4375 269.667969 287.4375 273.425781 289.757812 275.746094 C 290.082031 276.070312 290.441406 276.339844 290.816406 276.574219 C 288.6875 279.175781 286.449219 281.730469 284.007812 284.167969 C 281.195312 286.980469 278.25 289.554688 275.226562 291.949219 C 275.011719 291.625 274.761719 291.316406 274.472656 291.027344 C 272.15625 288.710938 268.398438 288.710938 266.078125 291.027344 C 263.980469 293.125 263.800781 296.394531 265.503906 298.71875 C 257.554688 303.542969 249.25 306.964844 241.027344 308.605469 C 228.421875 311.121094 217.429688 309.28125 209.582031 303.4375 L 256.429688 256.589844 Z M 270.089844 278.644531 C 272.410156 280.964844 276.167969 280.964844 278.484375 278.644531 C 280.804688 276.328125 280.804688 272.570312 278.484375 270.253906 C 276.167969 267.933594 272.410156 267.933594 270.089844 270.253906 C 267.773438 272.570312 267.773438 276.328125 270.089844 278.644531 Z M 270.089844 278.644531 " fill-opacity="1" fill-rule="nonzero"/><path fill="#384252" d="M 263.246094 179.488281 C 263.914062 178.820312 264.804688 178.449219 265.75 178.449219 C 266.695312 178.449219 267.585938 178.816406 268.253906 179.488281 L 275.285156 186.515625 C 276.664062 187.894531 276.664062 190.144531 275.285156 191.523438 L 191.363281 275.445312 C 189.980469 276.824219 187.734375 276.824219 186.355469 275.445312 L 179.324219 268.417969 C 178.65625 267.746094 178.289062 266.859375 178.289062 265.910156 C 178.289062 264.964844 178.65625 264.074219 179.324219 263.40625 Z M 263.246094 179.488281 " fill-opacity="1" fill-rule="nonzero"/><path fill="#384252" d="M 146.695312 20.03125 C 149.359375 22.304688 151.824219 25.074219 154.230469 28.507812 L 252.554688 177.898438 L 177.738281 252.71875 L 28.296875 154.359375 C 24.886719 151.957031 22.128906 149.503906 19.871094 146.855469 C 13.925781 139.890625 0 123.574219 61.707031 61.867188 C 123.410156 0.160156 139.730469 14.085938 146.695312 20.03125 Z M 146.695312 20.03125 " fill-opacity="1" fill-rule="nonzero"/><path fill="#384252" d="M 296.945312 204.640625 L 204.476562 297.105469 L 195.789062 282.457031 L 282.296875 195.953125 Z M 296.945312 204.640625 " fill-opacity="1" fill-rule="nonzero"/><path fill="#384252" d="M 312.03125 305.203125 C 311.496094 305.203125 310.980469 305.097656 310.46875 304.90625 C 309.984375 304.691406 309.554688 304.394531 309.175781 304.015625 C 308.796875 303.640625 308.5 303.183594 308.285156 302.695312 C 308.097656 302.210938 307.988281 301.699219 307.988281 301.160156 C 307.988281 300.890625 308.015625 300.621094 308.070312 300.378906 C 308.125 300.105469 308.203125 299.863281 308.285156 299.621094 C 308.394531 299.378906 308.527344 299.136719 308.664062 298.921875 C 308.824219 298.707031 308.988281 298.492188 309.175781 298.300781 C 310.117188 297.359375 311.496094 296.925781 312.816406 297.195312 C 313.085938 297.25 313.328125 297.332031 313.570312 297.410156 C 313.8125 297.519531 314.054688 297.65625 314.269531 297.789062 C 314.488281 297.949219 314.703125 298.113281 314.890625 298.300781 C 315.078125 298.492188 315.242188 298.707031 315.375 298.921875 C 315.539062 299.136719 315.671875 299.378906 315.753906 299.621094 C 315.859375 299.863281 315.941406 300.105469 315.996094 300.378906 C 316.050781 300.621094 316.078125 300.890625 316.078125 301.160156 C 316.078125 301.699219 315.96875 302.210938 315.753906 302.695312 C 315.5625 303.207031 315.269531 303.640625 314.890625 304.015625 C 314.109375 304.773438 313.109375 305.203125 312.03125 305.203125 Z M 312.03125 305.203125 " fill-opacity="1" fill-rule="nonzero"/><path fill="#384252" d="M 283.96875 313.75 C 283.96875 312.671875 284.398438 311.621094 285.15625 310.890625 C 285.34375 310.703125 285.558594 310.515625 285.773438 310.378906 C 285.988281 310.21875 286.234375 310.109375 286.476562 310 C 286.71875 309.894531 286.960938 309.8125 287.230469 309.757812 C 288.550781 309.515625 289.953125 309.949219 290.871094 310.890625 C 291.625 311.621094 292.054688 312.671875 292.054688 313.75 C 292.054688 314.828125 291.652344 315.824219 290.871094 316.605469 C 290.492188 316.984375 290.0625 317.28125 289.574219 317.46875 C 289.0625 317.6875 288.550781 317.792969 288.011719 317.792969 C 286.933594 317.792969 285.933594 317.363281 285.15625 316.605469 C 284.777344 316.230469 284.480469 315.773438 284.292969 315.285156 C 284.074219 314.800781 283.96875 314.289062 283.96875 313.75 Z M 283.96875 313.75 " fill-opacity="1" fill-rule="nonzero"/><g clip-path="url(#e4f367026f)"><path fill="#384252" d="M 349.398438 359.796875 C 349.507812 359.554688 349.640625 359.339844 349.777344 359.09375 C 349.910156 358.882812 350.101562 358.691406 350.289062 358.5 C 351.773438 356.992188 354.492188 356.992188 356.003906 358.5 C 356.191406 358.691406 356.355469 358.882812 356.515625 359.09375 C 356.652344 359.339844 356.785156 359.554688 356.867188 359.796875 C 356.972656 360.066406 357.054688 360.308594 357.109375 360.550781 C 357.164062 360.820312 357.191406 361.089844 357.191406 361.359375 C 357.191406 362.4375 356.757812 363.460938 356.003906 364.21875 C 355.25 364.972656 354.222656 365.40625 353.144531 365.40625 C 352.066406 365.40625 351.042969 364.972656 350.289062 364.21875 C 349.507812 363.460938 349.101562 362.4375 349.101562 361.359375 C 349.101562 361.089844 349.128906 360.820312 349.183594 360.550781 C 349.238281 360.308594 349.316406 360.066406 349.398438 359.796875 Z M 349.398438 359.796875 " fill-opacity="1" fill-rule="nonzero"/></g><path fill="#384252" d="M 304.027344 327.445312 C 304.132812 327.203125 304.242188 326.988281 304.402344 326.742188 C 304.539062 326.53125 304.699219 326.339844 304.890625 326.152344 C 306.398438 324.640625 309.121094 324.640625 310.632812 326.152344 C 310.820312 326.339844 310.980469 326.53125 311.117188 326.742188 C 311.277344 326.988281 311.386719 327.203125 311.496094 327.445312 C 311.601562 327.6875 311.683594 327.957031 311.710938 328.199219 C 311.761719 328.46875 311.789062 328.738281 311.789062 329.007812 C 311.789062 330.085938 311.386719 331.085938 310.632812 331.867188 C 310.226562 332.242188 309.796875 332.539062 309.3125 332.730469 C 308.824219 332.945312 308.285156 333.054688 307.746094 333.054688 C 307.207031 333.054688 306.695312 332.945312 306.210938 332.730469 C 305.726562 332.539062 305.265625 332.242188 304.890625 331.867188 C 304.132812 331.109375 303.703125 330.085938 303.703125 329.007812 C 303.703125 328.738281 303.730469 328.46875 303.78125 328.199219 C 303.835938 327.957031 303.917969 327.6875 304.027344 327.445312 Z M 304.027344 327.445312 " fill-opacity="1" fill-rule="nonzero"/><path fill="#384252" d="M 328.289062 333.296875 C 328.398438 333.054688 328.503906 332.808594 328.667969 332.59375 C 328.800781 332.378906 328.992188 332.164062 329.152344 331.972656 C 329.339844 331.785156 329.554688 331.625 329.773438 331.488281 C 329.988281 331.328125 330.230469 331.21875 330.472656 331.109375 C 330.714844 331.003906 330.984375 330.921875 331.226562 330.867188 C 331.765625 330.761719 332.28125 330.761719 332.820312 330.867188 C 333.0625 330.921875 333.332031 331.003906 333.574219 331.109375 C 333.816406 331.21875 334.058594 331.328125 334.273438 331.488281 C 334.492188 331.625 334.707031 331.785156 334.894531 331.972656 C 335.054688 332.164062 335.246094 332.378906 335.378906 332.59375 C 335.542969 332.808594 335.648438 333.054688 335.757812 333.296875 C 335.863281 333.539062 335.945312 333.804688 336 334.050781 C 336.054688 334.320312 336.082031 334.589844 336.082031 334.832031 C 336.082031 335.910156 335.648438 336.933594 334.894531 337.691406 C 334.492188 338.09375 334.058594 338.390625 333.574219 338.578125 C 333.089844 338.769531 332.546875 338.875 332.011719 338.875 C 331.46875 338.875 330.957031 338.769531 330.472656 338.578125 C 329.988281 338.390625 329.554688 338.09375 329.152344 337.691406 C 328.398438 336.933594 327.964844 335.910156 327.964844 334.832031 C 327.964844 334.589844 327.992188 334.320312 328.046875 334.050781 C 328.101562 333.804688 328.183594 333.539062 328.289062 333.296875 Z M 328.289062 333.296875 " fill-opacity="1" fill-rule="nonzero"/><path fill="#384252" d="M 309.796875 367.425781 C 310.011719 367.289062 310.226562 367.15625 310.46875 367.046875 C 310.710938 366.941406 310.980469 366.886719 311.25 366.832031 C 311.761719 366.722656 312.300781 366.722656 312.816406 366.832031 C 313.085938 366.886719 313.328125 366.941406 313.570312 367.046875 C 313.8125 367.15625 314.054688 367.289062 314.269531 367.425781 C 314.488281 367.585938 314.703125 367.75 314.890625 367.9375 C 315.644531 368.691406 316.078125 369.742188 316.078125 370.796875 C 316.078125 371.332031 315.96875 371.847656 315.753906 372.332031 C 315.566406 372.820312 315.269531 373.277344 314.890625 373.652344 C 314.136719 374.410156 313.109375 374.839844 312.03125 374.839844 C 310.953125 374.839844 309.929688 374.410156 309.175781 373.652344 C 308.796875 373.277344 308.5 372.820312 308.285156 372.332031 C 308.097656 371.847656 307.988281 371.332031 307.988281 370.796875 C 307.988281 369.742188 308.421875 368.691406 309.175781 367.9375 C 309.363281 367.75 309.554688 367.585938 309.796875 367.425781 Z M 309.796875 367.425781 " fill-opacity="1" fill-rule="nonzero"/><path fill="#384252" d="M 281.164062 339.414062 C 281.40625 339.46875 281.675781 339.546875 281.917969 339.65625 C 282.160156 339.738281 282.378906 339.871094 282.621094 340.007812 C 282.835938 340.167969 283.023438 340.332031 283.214844 340.519531 C 283.402344 340.710938 283.589844 340.925781 283.726562 341.140625 C 283.859375 341.355469 283.996094 341.597656 284.101562 341.84375 C 284.210938 342.085938 284.292969 342.328125 284.320312 342.597656 C 284.371094 342.839844 284.398438 343.109375 284.398438 343.378906 C 284.398438 344.457031 283.996094 345.480469 283.214844 346.234375 C 282.835938 346.613281 282.40625 346.910156 281.917969 347.125 C 281.433594 347.316406 280.894531 347.421875 280.355469 347.421875 C 279.816406 347.421875 279.304688 347.316406 278.820312 347.125 C 278.332031 346.910156 277.875 346.613281 277.496094 346.234375 C 276.742188 345.480469 276.3125 344.457031 276.3125 343.378906 C 276.3125 342.300781 276.742188 341.277344 277.496094 340.519531 C 278.441406 339.578125 279.84375 339.171875 281.164062 339.414062 Z M 281.164062 339.414062 " fill-opacity="1" fill-rule="nonzero"/></svg>